<?xml version="1.0" encoding="UTF-8" standalone="no"?><!DOCTYPE svg PUBLIC "-//W3C//DTD SVG 1.1//EN" "http://www.w3.org/Graphics/SVG/1.1/DTD/svg11.dtd"><svg viewBox="0 0 640 640" xmlns="http://www.w3.org/2000/svg" xmlns:xlink="http://www.w3.org/1999/xlink"><style>:root>svg{display:none}:root>svg:target{display:block}</style><svg fill="none" viewBox="0 0 24 24" id="arrow-top" xmlns="http://www.w3.org/2000/svg"><path d="M12 17.5v-11m0 0-4 4.588M12 6.5l4 4.588" stroke="#363853" stroke-width="1.5" stroke-linecap="round" stroke-linejoin="round" style="stroke:#000;stroke-opacity:.73000002"/></svg><svg viewBox="0 -64 640 640" fill="rgba(0, 0, 0, 0.6)" id="city-icon" xmlns="http://www.w3.org/2000/svg"><path d="M616 192H480V24c0-13.26-10.74-24-24-24H312c-13.26 0-24 10.74-24 24v72h-64V16c0-8.84-7.16-16-16-16h-16c-8.84 0-16 7.16-16 16v80h-64V16c0-8.84-7.16-16-16-16H80c-8.84 0-16 7.16-16 16v80H24c-13.26 0-24 10.74-24 24v360c0 17.67 14.33 32 32 32h576c17.67 0 32-14.33 32-32V216c0-13.26-10.75-24-24-24zM128 404c0 6.63-5.37 12-12 12H76c-6.63 0-12-5.37-12-12v-40c0-6.63 5.37-12 12-12h40c6.63 0 12 5.37 12 12v40zm0-96c0 6.63-5.37 12-12 12H76c-6.63 0-12-5.37-12-12v-40c0-6.63 5.37-12 12-12h40c6.63 0 12 5.37 12 12v40zm0-96c0 6.63-5.37 12-12 12H76c-6.63 0-12-5.37-12-12v-40c0-6.63 5.37-12 12-12h40c6.63 0 12 5.37 12 12v40zm128 192c0 6.63-5.37 12-12 12h-40c-6.63 0-12-5.37-12-12v-40c0-6.63 5.37-12 12-12h40c6.63 0 12 5.37 12 12v40zm0-96c0 6.63-5.37 12-12 12h-40c-6.63 0-12-5.37-12-12v-40c0-6.63 5.37-12 12-12h40c6.63 0 12 5.37 12 12v40zm0-96c0 6.63-5.37 12-12 12h-40c-6.63 0-12-5.37-12-12v-40c0-6.63 5.37-12 12-12h40c6.63 0 12 5.37 12 12v40zm160 96c0 6.63-5.37 12-12 12h-40c-6.63 0-12-5.37-12-12v-40c0-6.63 5.37-12 12-12h40c6.63 0 12 5.37 12 12v40zm0-96c0 6.63-5.37 12-12 12h-40c-6.63 0-12-5.37-12-12v-40c0-6.63 5.37-12 12-12h40c6.63 0 12 5.37 12 12v40zm0-96c0 6.63-5.37 12-12 12h-40c-6.63 0-12-5.37-12-12V76c0-6.63 5.37-12 12-12h40c6.63 0 12 5.37 12 12v40zm160 288c0 6.63-5.37 12-12 12h-40c-6.63 0-12-5.37-12-12v-40c0-6.63 5.37-12 12-12h40c6.63 0 12 5.37 12 12v40zm0-96c0 6.63-5.37 12-12 12h-40c-6.63 0-12-5.37-12-12v-40c0-6.63 5.37-12 12-12h40c6.63 0 12 5.37 12 12v40z"/></svg><svg viewBox="0 0 47.971 47.971" style="enable-background:new 0 0 47.971 47.971" xml:space="preserve" id="close-icon" xmlns="http://www.w3.org/2000/svg"><path d="M28.228 23.986 47.092 5.122a2.998 2.998 0 0 0 0-4.242 2.998 2.998 0 0 0-4.242 0L23.986 19.744 5.121.88a2.998 2.998 0 0 0-4.242 0 2.998 2.998 0 0 0 0 4.242l18.865 18.864L.879 42.85a2.998 2.998 0 1 0 4.242 4.241l18.865-18.864L42.85 47.091c.586.586 1.354.879 2.121.879s1.535-.293 2.121-.879a2.998 2.998 0 0 0 0-4.242L28.228 23.986z" fill="#000000af"/></svg><svg viewBox="0 0 386.892 386.892" style="enable-background:new 0 0 386.892 386.892" xml:space="preserve" fill="rgba(0, 0, 0, .6)" id="cloud" xmlns="http://www.w3.org/2000/svg"><path d="M337.002 201.38c-2.1-65.777-37.396-125.652-107.237-139.71-64.668-13.017-132.479 28.788-147.657 93.301-.03.126.013.24-.012.367-35.739-.544-70.801 30.551-79.339 67.214-20.407 87.627 77.206 94.594 136.125 96.413 52.659 1.624 214.185 33.403 243.104-36.232 16.485-39.693-11.114-69.066-44.984-81.353z"/></svg><svg viewBox="0 0 284.011 284.011" style="enable-background:new 0 0 284.011 284.011" xml:space="preserve" id="delete" xmlns="http://www.w3.org/2000/svg"><path d="m235.732 66.214-28.006-13.301 1.452-3.057c6.354-13.379.639-29.434-12.74-35.789L172.316 2.611c-6.48-3.079-13.771-3.447-20.532-1.042-6.76 2.406-12.178 7.301-15.256 13.782l-1.452 3.057L107.07 5.106c-14.653-6.958-32.239-.698-39.2 13.955L60.7 34.155a10.002 10.002 0 0 0 4.743 13.324l74.218 35.25h-98.18a10.002 10.002 0 0 0-9.965 10.831l13.143 157.706c1.53 18.362 17.162 32.745 35.588 32.745h73.54c18.425 0 34.057-14.383 35.587-32.745l11.618-139.408 28.205 13.396a9.956 9.956 0 0 0 4.283.969c3.74 0 7.328-2.108 9.04-5.712l7.169-15.093c6.957-14.657.697-32.243-13.957-39.204zm-81.138-42.283a6.823 6.823 0 0 1 3.896-3.521 6.812 6.812 0 0 1 5.245.267l24.121 11.455a6.872 6.872 0 0 1 3.255 9.144l-1.452 3.057-36.518-17.344 1.453-3.058zm14.847 225.673c-.673 8.077-7.55 14.405-15.655 14.405h-73.54c-8.106 0-14.983-6.328-15.656-14.405L52.35 102.728h129.332l-12.241 146.876zM231.62 96.835l-2.878 6.06L83.057 33.701l2.879-6.061c2.229-4.695 7.863-6.698 12.554-4.469l128.661 61.108c4.694 2.23 6.699 7.863 4.469 12.556z" fill="#000000af"/></svg><svg style="enable-background:new 0 0 442.04 442.04" xml:space="preserve" viewBox="0 0 442.04 442.04" id="eye-icon" xmlns="http://www.w3.org/2000/svg"><path d="M221.02 341.304c-49.708 0-103.206-19.44-154.71-56.22-38.502-27.494-62.266-54.733-63.259-55.881a12.5 12.5 0 0 1 0-16.367c.993-1.146 24.756-28.387 63.259-55.881 51.505-36.777 105.003-56.219 154.71-56.219 49.708 0 103.207 19.441 154.71 56.219 38.502 27.494 62.266 54.734 63.259 55.881a12.5 12.5 0 0 1 0 16.367c-.993 1.146-24.756 28.387-63.259 55.881-51.503 36.779-105.001 56.22-154.71 56.22zM29.638 221.021c9.61 9.799 27.747 27.03 51.694 44.071 32.83 23.361 83.714 51.212 139.688 51.212s106.859-27.851 139.688-51.212c23.944-17.038 42.082-34.271 51.694-44.071-9.609-9.799-27.747-27.03-51.694-44.071-32.829-23.362-83.714-51.212-139.688-51.212s-106.858 27.85-139.688 51.212c-23.944 17.038-42.082 34.269-51.694 44.071z" style="fill:#000;fill-opacity:.73000002"/><path d="M221.02 298.521c-42.734 0-77.5-34.767-77.5-77.5s34.766-77.5 77.5-77.5a77.436 77.436 0 0 1 51.048 19.188c5.193 4.549 5.715 12.446 1.166 17.639-4.549 5.193-12.447 5.714-17.639 1.166a52.448 52.448 0 0 0-34.576-12.993c-28.949 0-52.5 23.552-52.5 52.5s23.551 52.5 52.5 52.5c28.95 0 52.5-23.552 52.5-52.5 0-6.903 5.597-12.5 12.5-12.5s12.5 5.597 12.5 12.5c.002 42.733-34.765 77.5-77.499 77.5z" style="fill:#000;fill-opacity:.73000002"/><path d="M221.02 246.021c-13.785 0-25-11.215-25-25s11.215-25 25-25c13.786 0 25 11.215 25 25s-11.214 25-25 25z" style="fill:#000;fill-opacity:.73000002"/></svg><svg viewBox="0 0 10 16" id="git-icon" xmlns="http://www.w3.org/2000/svg"><path fill-rule="evenodd" d="M10 5c0-1.11-.89-2-2-2a1.993 1.993 0 0 0-1 3.72v.3c-.02.52-.23.98-.63 1.38-.4.4-.86.61-1.38.63-.83.02-1.48.16-2 .45V4.72a1.993 1.993 0 0 0-1-3.72C.88 1 0 1.89 0 3a2 2 0 0 0 1 1.72v6.56c-.59.35-1 .99-1 1.72 0 1.11.89 2 2 2 1.11 0 2-.89 2-2 0-.53-.2-1-.53-1.36.09-.06.48-.41.59-.47.25-.11.56-.17.94-.17 1.05-.05 1.95-.45 2.75-1.25S8.95 7.77 9 6.73h-.02C9.59 6.37 10 5.73 10 5zM2 1.8c.66 0 1.2.55 1.2 1.2 0 .65-.55 1.2-1.2 1.2C1.35 4.2.8 3.65.8 3c0-.65.55-1.2 1.2-1.2zm0 12.41c-.66 0-1.2-.55-1.2-1.2 0-.65.55-1.2 1.2-1.2.65 0 1.2.55 1.2 1.2 0 .65-.55 1.2-1.2 1.2zm6-8c-.66 0-1.2-.55-1.2-1.2 0-.65.55-1.2 1.2-1.2.65 0 1.2.55 1.2 1.2 0 .65-.55 1.2-1.2 1.2z" fill="#000000af"/></svg><svg fill="rgba(0, 0, 0, .6)" viewBox="0 0 32 32" id="github" xmlns="http://www.w3.org/2000/svg"><path d="M16 .396c-8.839 0-16 7.167-16 16 0 7.073 4.584 13.068 10.937 15.183.803.151 1.093-.344 1.093-.772 0-.38-.009-1.385-.015-2.719-4.453.964-5.391-2.151-5.391-2.151-.729-1.844-1.781-2.339-1.781-2.339-1.448-.989.115-.968.115-.968 1.604.109 2.448 1.645 2.448 1.645 1.427 2.448 3.744 1.74 4.661 1.328.14-1.031.557-1.74 1.011-2.135-3.552-.401-7.287-1.776-7.287-7.907 0-1.751.62-3.177 1.645-4.297-.177-.401-.719-2.031.141-4.235 0 0 1.339-.427 4.4 1.641a15.436 15.436 0 0 1 4-.541c1.36.009 2.719.187 4 .541 3.043-2.068 4.381-1.641 4.381-1.641.859 2.204.317 3.833.161 4.235 1.015 1.12 1.635 2.547 1.635 4.297 0 6.145-3.74 7.5-7.296 7.891.556.479 1.077 1.464 1.077 2.959 0 2.14-.02 3.864-.02 4.385 0 .416.28.916 1.104.755 6.4-2.093 10.979-8.093 10.979-15.156 0-8.833-7.161-16-16-16z"/></svg><svg fill="#000000af" viewBox="0 0 206.333 206.333" style="enable-background:new 0 0 206.333 206.333" xml:space="preserve" id="heart-icon" xmlns="http://www.w3.org/2000/svg"><path d="M206.333 76.952c0 25.365-13.967 46.069-42.7 63.297-36.253 21.737-54.063 47.905-54.239 48.167a7.5 7.5 0 0 1-12.451.007c-.272-.403-18.283-26.613-54.243-48.174C13.967 123.021 0 102.316 0 76.952c0-30.228 19.701-62.354 56.211-62.354 24.457 0 39.282 10.829 46.956 18.941 7.674-8.113 22.499-18.941 46.956-18.941 36.51-.001 56.21 32.126 56.21 62.354z"/></svg><svg viewBox="0 0 20 20" id="info-icon" xmlns="http://www.w3.org/2000/svg"><path d="M10 .4C4.697.4.399 4.698.399 10A9.6 9.6 0 0 0 10 19.601c5.301 0 9.6-4.298 9.6-9.601 0-5.302-4.299-9.6-9.6-9.6zm.896 3.466c.936 0 1.211.543 1.211 1.164 0 .775-.62 1.492-1.679 1.492-.886 0-1.308-.445-1.282-1.182 0-.621.519-1.474 1.75-1.474zM8.498 15.75c-.64 0-1.107-.389-.66-2.094l.733-3.025c.127-.484.148-.678 0-.678-.191 0-1.022.334-1.512.664l-.319-.523c1.555-1.299 3.343-2.061 4.108-2.061.64 0 .746.756.427 1.92l-.84 3.18c-.149.562-.085.756.064.756.192 0 .82-.232 1.438-.719l.362.486c-1.513 1.512-3.162 2.094-3.801 2.094z" fill="#000000af"/></svg><svg viewBox="0 0 512.006 512.006" style="enable-background:new 0 0 512.006 512.006" fill="#fff" xml:space="preserve" id="left-arrow-icon" xmlns="http://www.w3.org/2000/svg"><path d="M388.419 475.59 168.834 256.005 388.418 36.421c8.341-8.341 8.341-21.824 0-30.165s-21.824-8.341-30.165 0L123.586 240.923c-8.341 8.341-8.341 21.824 0 30.165l234.667 234.667a21.275 21.275 0 0 0 15.083 6.251 21.277 21.277 0 0 0 15.083-6.251c8.341-8.341 8.341-21.824 0-30.165z"/></svg><svg version="1.2" baseProfile="tiny" viewBox="0 0 24 24" id="location-icon" xmlns="http://www.w3.org/2000/svg"><path d="M17.657 5.304c-3.124-3.073-8.189-3.073-11.313 0a7.78 7.78 0 0 0 0 11.13L12 21.999l5.657-5.565a7.78 7.78 0 0 0 0-11.13zM12 13.499c-.668 0-1.295-.26-1.768-.732a2.503 2.503 0 0 1 0-3.536c.472-.472 1.1-.732 1.768-.732s1.296.26 1.768.732a2.503 2.503 0 0 1 0 3.536c-.472.472-1.1.732-1.768.732z" fill="#000000af"/></svg><svg viewBox="0 0 24 24" id="location-not-found" xmlns="http://www.w3.org/2000/svg"><path d="M5.843 4.559a8.707 8.707 0 0 1 12.514 12.107l-.2.207a434.13 434.13 0 0 1-4.593 4.486 2.25 2.25 0 0 1-3.128 0l-3.85-3.749c-.284-.28-.532-.526-.743-.737a8.707 8.707 0 0 1 0-12.314Zm9.187 3.127-.084-.073a.75.75 0 0 0-.882-.007l-.094.08L12 9.655l-1.97-1.97-.084-.072a.75.75 0 0 0-.882-.007l-.094.08-.073.084a.75.75 0 0 0-.007.882l.08.094 1.969 1.97-1.97 1.97-.072.084a.75.75 0 0 0-.007.882l.08.094.084.073a.75.75 0 0 0 .882.007l.094-.08 1.97-1.97 1.97 1.97.084.073a.75.75 0 0 0 .882.007l.094-.08.073-.084a.75.75 0 0 0 .007-.882l-.08-.094-1.969-1.97 1.97-1.97.072-.084a.75.75 0 0 0 .007-.882l-.08-.094-.084-.073.084.073Z" fill="#000000af" fill-rule="nonzero"/></svg><svg viewBox="0 0 20 20" id="mail-icon" xmlns="http://www.w3.org/2000/svg"><path d="M10 .4C4.698.4.4 4.698.4 10s4.298 9.6 9.6 9.6 9.6-4.298 9.6-9.6S15.302.4 10 .4zM6.231 7h7.52c.399 0 .193.512-.024.643-.217.13-3.22 1.947-3.333 2.014s-.257.1-.403.1a.793.793 0 0 1-.402-.1L6.255 7.643C6.038 7.512 5.833 7 6.231 7zM14 12.5c0 .21-.252.5-.444.5H6.444C6.252 13 6 12.71 6 12.5V8.853c0-.092-.002-.211.172-.11l3.417 2.015a.69.69 0 0 0 .402.1.69.69 0 0 0 .403-.1l3.434-2.014c.174-.102.172.018.172.11V12.5z" fill="#000000af"/></svg><svg fill="none" viewBox="0 0 24 24" id="menu-icon" xmlns="http://www.w3.org/2000/svg"><path d="M4 6a1 1 0 0 1 1-1h14a1 1 0 1 1 0 2H5a1 1 0 0 1-1-1ZM4 18a1 1 0 0 1 1-1h14a1 1 0 1 1 0 2H5a1 1 0 0 1-1-1ZM11 11a1 1 0 1 0 0 2h8a1 1 0 1 0 0-2h-8Z" fill="rgba(0, 0, 0, 0.686)"/></svg><svg viewBox="0 0 170 170" id="not-found-icon" xmlns="http://www.w3.org/2000/svg"><path d="M74.954 14.866a5 5 0 1 0-7.071-7.07L7.795 67.881a5.001 5.001 0 0 0 7.072 7.071l60.087-60.087Zm-5.191 49.24a36.213 36.213 0 0 0 7.986-22.732c0-4.325-.757-8.472-2.144-12.319-.959-2.658-4.4-3.369-6.398-1.37l-.172.172c-1.081 1.081-1.4 2.683-.891 4.124 1.422 4.031 1.962 8.473 1.366 13.101-1.627 12.651-11.778 22.801-24.429 24.428-4.628.595-9.069.055-13.099-1.367-1.442-.508-3.044-.19-4.124.891l-.172.172c-1.999 1.998-1.288 5.44 1.37 6.398a36.248 36.248 0 0 0 12.319 2.145 36.21 36.21 0 0 0 22.73-7.987l24.063 24.063a3.99 3.99 0 0 0 2.829 1.171 4 4 0 0 0 2.829-6.828L69.763 64.105ZM7.043 53.406a36.34 36.34 0 0 1-2.011-13.575c.777-18.73 16.071-34.024 34.8-34.8a36.322 36.322 0 0 1 13.576 2.01c2.795.981 3.651 4.505 1.557 6.6l-.033.032c-1.105 1.105-2.743 1.43-4.218.912-4.016-1.407-8.439-1.94-13.046-1.348-12.651 1.627-22.802 11.778-24.429 24.43-.592 4.606-.06 9.03 1.348 13.045.517 1.475.193 3.113-.912 4.218l-.033.033c-2.094 2.094-5.618 1.238-6.599-1.557Z" fill="#000000af" fill-rule="evenodd"/></svg><svg viewBox="0 0 330 330" style="enable-background:new 0 0 330 330" fill="#fff" xml:space="preserve" id="right-arrow-icon" xmlns="http://www.w3.org/2000/svg"><path d="m250.606 154.389-150-149.996c-5.857-5.858-15.355-5.858-21.213.001-5.857 5.858-5.857 15.355.001 21.213l139.393 139.39L79.393 304.394c-5.857 5.858-5.857 15.355.001 21.213C82.322 328.536 86.161 330 90 330s7.678-1.464 10.607-4.394l149.999-150.004a14.996 14.996 0 0 0 0-21.213z"/></svg><svg data-name="24x24/On Light/Arrow-Right" viewBox="0 0 24 24" id="right-arrow-select" xmlns="http://www.w3.org/2000/svg"><path fill="none" d="M0 0h24v24H0z"/><path d="M9.47 16.47a.75.75 0 0 0 1.06 1.06l5-5a.75.75 0 0 0 0-1.061l-5-5A.75.75 0 0 0 9.47 7.53L13.94 12Z" fill="#000000af"/></svg><svg fill="#000000bb" viewBox="0 0 330 330" style="enable-background:new 0 0 330 330" xml:space="preserve" id="search-icon" xmlns="http://www.w3.org/2000/svg"><path d="M325.606 304.394 223.328 202.117c16.707-21.256 26.683-48.041 26.683-77.111C250.011 56.077 193.934 0 125.005 0 56.077 0 0 56.077 0 125.006 0 193.933 56.077 250.01 125.005 250.01c29.07 0 55.855-9.975 77.11-26.681l102.278 102.277c2.929 2.93 6.768 4.394 10.607 4.394s7.678-1.464 10.606-4.394c5.859-5.857 5.859-15.355 0-21.212zM30 125.006C30 72.619 72.619 30 125.005 30c52.387 0 95.006 42.619 95.006 95.005 0 52.386-42.619 95.004-95.006 95.004C72.619 220.01 30 177.391 30 125.006z"/></svg><svg viewBox="0 0 24 24" id="settings-icon" xmlns="http://www.w3.org/2000/svg"><path fill="none" d="M0 0h24v24H0z"/><path fill="#000000af" d="M5.334 4.545a9.99 9.99 0 0 1 3.542-2.048A3.993 3.993 0 0 0 12 3.999a3.993 3.993 0 0 0 3.124-1.502 9.99 9.99 0 0 1 3.542 2.048 3.993 3.993 0 0 0 .262 3.454 3.993 3.993 0 0 0 2.863 1.955 10.043 10.043 0 0 1 0 4.09c-1.16.178-2.23.86-2.863 1.955a3.993 3.993 0 0 0-.262 3.455 9.99 9.99 0 0 1-3.542 2.047A3.993 3.993 0 0 0 12 20a3.993 3.993 0 0 0-3.124 1.502 9.99 9.99 0 0 1-3.542-2.047A3.993 3.993 0 0 0 5.072 16a3.993 3.993 0 0 0-2.863-1.954 10.043 10.043 0 0 1 0-4.091A3.993 3.993 0 0 0 5.072 8a3.993 3.993 0 0 0 .262-3.454zM13.5 14.597a3 3 0 1 0-3-5.196 3 3 0 0 0 3 5.196z"/></svg><svg fill="none" stroke="rgba(0, 0, 0, 0.686)" stroke-width="2" stroke-linecap="round" stroke-linejoin="round" class="ufeather ufeather-sunrise" viewBox="0 0 24 24" id="sunrise-icon" xmlns="http://www.w3.org/2000/svg"><path d="M17 18a5 5 0 0 0-10 0M12 2v7M4.22 10.22l1.42 1.42M1 18h2M21 18h2M18.36 11.64l1.42-1.42M23 22H1M8 6l4-4 4 4"/></svg><svg viewBox="0 0 512 512" fill="rgba(0, 0, 0, 0.686)" stroke="rgba(0, 0, 0, 0.686)" id="sunset-icon" xmlns="http://www.w3.org/2000/svg"><path d="M423.3 255.5c0 11.3 9.1 20.5 20.4 20.5h36.9c11.3 0 20.4-9.2 20.4-20.5s-9.1-20.5-20.4-20.5h-36.9c-11.3 0-20.4 9.2-20.4 20.5zM34.1 276H71c11.3 0 20.4-9.2 20.4-20.5S82.3 235 71 235H34.1c-11.3 0-20.4 9.2-20.4 20.5S22.8 276 34.1 276zM257.3 88.9c11.3 0 20.4-9.2 20.4-20.5v-37c0-11.3-9.1-20.5-20.4-20.5-11.3 0-20.4 9.2-20.4 20.5v37c0 11.4 9.2 20.5 20.4 20.5zM111.1 137.7c8 8 20.9 8 28.9 0s8-21 0-29l-26.1-26.1c-8-8-20.9-8-28.9 0s-8 21 0 29l26.1 26.1zM403.6 137.7l26.1-26.1c8-8 8-21 0-29s-20.9-8-28.9 0l-26.1 26.1c-8 8-8 21 0 29s20.9 8 28.9 0z"/><path d="M477.9 313.9H385c8.2-18.3 12.5-38.1 12.5-58.5 0-78-62.9-141.6-140.2-141.6-77.3 0-140.2 63.5-140.2 141.6 0 20.3 4.3 40.2 12.5 58.5H31.4c-11.3 0-20.4 9.2-20.4 20.5s9.1 20.5 20.4 20.5h205.5v75.9L221 414.7c-7.9-8-20.9-8.1-28.9-.1s-8 20.9-.1 29l50.8 51.4c3.8 3.9 9 6.1 14.5 6.1 5.4 0 10.7-2.2 14.5-6.1l50.8-51.4c7.9-8 7.9-21-.1-29s-20.9-7.9-28.9.1l-15.9 16.1v-75.9h200.1c11.3 0 20.4-9.2 20.4-20.5.1-11.3-9-20.5-20.3-20.5zm-138.2-2.2c-.5.7-.9 1.4-1.3 2.2h-60.7V211.2c0-11.3-9.1-20.5-20.4-20.5-11.3 0-20.4 9.2-20.4 20.5v102.7h-61.2c-.5-1.5-1.2-2.9-2-4.2-10.3-16.2-15.7-34.9-15.7-54.3 0-55.5 44.6-100.6 99.4-100.6 54.8 0 99.4 45.1 99.4 100.6-.1 20.2-6 39.7-17.1 56.3z"/></svg><svg viewBox="0 0 24 24" id="telegram-icon" xmlns="http://www.w3.org/2000/svg"><path d="M12 0C5.373 0 0 5.373 0 12s5.373 12 12 12 12-5.373 12-12S18.627 0 12 0zm5.894 8.221-1.97 9.28c-.145.658-.537.818-1.084.508l-3-2.21-1.446 1.394a.759.759 0 0 1-.6.295h-.005l.213-3.054 5.56-5.022c.24-.213-.054-.334-.373-.121L8.32 13.617l-2.96-.924c-.64-.203-.658-.64.135-.954l11.566-4.458c.538-.196 1.006.128.832.941z" fill="#000000af"/></svg><svg viewBox="0 0 512 512" style="enable-background:new 0 0 512 512" xml:space="preserve" id="town-icon" xmlns="http://www.w3.org/2000/svg"><path d="M493.714 495.02V288.947l-130.612-62.694V66.612h-31.347V24.816h-67.918V1.306h-15.673v23.51h-67.918v41.796h-31.347v146.286h-31.347V168.49h-15.673v44.408H44.408v41.796H18.286V495.02H0v15.673h512V495.02h-18.286zM148.898 312.163H52.245v15.673h96.653v26.122H52.245v15.673h96.653v26.122H52.245v15.673h96.653v26.122H52.245v15.673h96.653v41.796H33.959v-224.65h114.939v41.796zm0-57.469H60.082v-26.122h88.816v26.122zm47.02-214.204h120.163v26.122H195.918V40.49zm151.511 454.53H164.571V82.286h182.857V495.02zm130.612-41.796h-31.347v-26.122h31.347v26.122zm0-83.591h-31.347V343.51h31.347v26.123zm0-41.796H384v57.469h94.041v26.122H384v57.469h94.041v26.122H363.102V243.638l114.939 55.171v29.028zM431.02 343.51v26.122h-31.347V343.51h31.347zm0 83.592v26.122h-31.347v-26.122h31.347z" fill="#000000af"/><path fill="#000000af" d="M381.388 291.265h20.898v15.673h-20.898zM240.327 113.633h31.347v15.673h-31.347zM240.327 155.429h31.347v15.673h-31.347zM240.327 197.225h31.347v15.673h-31.347zM240.327 239.02h31.347v15.674h-31.347zM292.571 239.02h31.347v15.674h-31.347zM188.082 239.02h31.347v15.674h-31.347zM240.327 280.816h31.347v15.673h-31.347zM292.571 280.816h31.347v15.673h-31.347zM188.082 280.816h31.347v15.673h-31.347zM240.327 322.612h31.347v15.673h-31.347zM292.571 322.612h31.347v15.673h-31.347zM188.082 322.612h31.347v15.673h-31.347zM240.327 364.408h31.347v15.673h-31.347zM292.571 364.408h31.347v15.673h-31.347zM188.082 364.408h31.347v15.673h-31.347zM240.327 406.204h31.347v15.673h-31.347zM292.571 406.204h31.347v15.673h-31.347zM188.082 406.204h31.347v15.673h-31.347zM240.327 448h31.347v15.673h-31.347zM292.571 448h31.347v15.673h-31.347zM188.082 448h31.347v15.673h-31.347zM292.571 197.225h31.347v15.673h-31.347zM188.082 197.225h31.347v15.673h-31.347zM292.571 155.429h31.347v15.673h-31.347zM188.082 155.429h31.347v15.673h-31.347zM292.571 113.633h31.347v15.673h-31.347zM188.082 113.633h31.347v15.673h-31.347z"/></svg><svg viewBox="0 0 20 20" id="vk-icon" xmlns="http://www.w3.org/2000/svg"><path d="M10 .4C4.698.4.4 4.698.4 10s4.298 9.6 9.6 9.6 9.6-4.298 9.6-9.6S15.302.4 10 .4zm3.692 10.831s.849.838 1.058 1.227c.006.008.009.016.011.02.085.143.105.254.063.337-.07.138-.31.206-.392.212h-1.5c-.104 0-.322-.027-.586-.209-.203-.142-.403-.375-.598-.602-.291-.338-.543-.63-.797-.63a.305.305 0 0 0-.095.015c-.192.062-.438.336-.438 1.066 0 .228-.18.359-.307.359h-.687c-.234 0-1.453-.082-2.533-1.221-1.322-1.395-2.512-4.193-2.522-4.219-.075-.181.08-.278.249-.278h1.515c.202 0 .268.123.314.232.054.127.252.632.577 1.2.527.926.85 1.302 1.109 1.302a.3.3 0 0 0 .139-.036c.338-.188.275-1.393.26-1.643 0-.047-.001-.539-.174-.775-.124-.171-.335-.236-.463-.26a.55.55 0 0 1 .199-.169c.232-.116.65-.133 1.065-.133h.231c.45.006.566.035.729.076.33.079.337.292.308 1.021-.009.207-.018.441-.018.717 0 .06-.003.124-.003.192-.01.371-.022.792.24.965a.216.216 0 0 0 .114.033c.091 0 .365 0 1.107-1.273a9.718 9.718 0 0 0 .595-1.274c.015-.026.059-.106.111-.137a.266.266 0 0 1 .124-.029h1.781c.194 0 .327.029.352.104.044.119-.008.482-.821 1.583l-.363.479c-.737.966-.737 1.015.046 1.748z" fill="#000000af"/></svg></svg>